<?xml version="1.0" encoding="utf-8"?>
<!-- Generator: Adobe Illustrator 24.0.2, SVG Export Plug-In . SVG Version: 6.00 Build 0)  -->
<svg version="1.1"
	 id="svg8" inkscape:version="0.92.4 (5da689c313, 2019-01-14)" sodipodi:docname="instaicon.svg" xmlns:cc="http://creativecommons.org/ns#" xmlns:dc="http://purl.org/dc/elements/1.1/" xmlns:inkscape="http://www.inkscape.org/namespaces/inkscape" xmlns:rdf="http://www.w3.org/1999/02/22-rdf-syntax-ns#" xmlns:sodipodi="http://sodipodi.sourceforge.net/DTD/sodipodi-0.dtd" xmlns:svg="http://www.w3.org/2000/svg"
	 xmlns="http://www.w3.org/2000/svg" xmlns:xlink="http://www.w3.org/1999/xlink" x="0px" y="0px" viewBox="0 0 283.5 283.5"
	 style="enable-background:new 0 0 283.5 283.5;" xml:space="preserve">
<style type="text/css">
	.st0{stroke:#FDFFFF;stroke-width:11.3386;stroke-miterlimit:11.3386;}
	.st1{fill:none;stroke:#000000;stroke-width:11.3386;stroke-miterlimit:11.3386;}
	.st2{stroke:#000000;stroke-width:4.0495;stroke-miterlimit:3;}
	.st3{fill:#FFFFFF;}
	.st4{fill:#FDFEFF;}
	.st5{display:none;}
	.st6{display:inline;}
	.st7{stroke:#FFFFFF;stroke-width:2.058;stroke-miterlimit:10;}
</style>
<sodipodi:namedview  bordercolor="#666666" borderopacity="1.0" id="base" inkscape:current-layer="layer1" inkscape:cx="492.46377" inkscape:cy="-9.5377153" inkscape:document-units="mm" inkscape:object-nodes="false" inkscape:pageopacity="0.0" inkscape:pageshadow="2" inkscape:window-height="1017" inkscape:window-maximized="1" inkscape:window-width="1920" inkscape:window-x="-8" inkscape:window-y="-8" inkscape:zoom="0.98994949" pagecolor="#ffffff" showgrid="false" showguides="false">
	</sodipodi:namedview>
<g id="layer1" transform="translate(0,-197)" inkscape:groupmode="layer" inkscape:label="Layer 1">
	<circle id="path815" class="st0" cx="141.7" cy="338.7" r="118.9"/>
	<path id="path977" inkscape:connector-curvature="0" class="st1" d="M81.4,338.7h30"/>
	<path id="path1003" inkscape:connector-curvature="0" class="st2" d="M188.9,290.5c-2.4-2.2-5.7-3.5-9.2-3.5c-0.9,0-1.6,0-1.6-0.1
		c0,0,0.2-0.6,0.5-1.1c0.4-0.7,0.5-1.6,0.5-2.6v-1.6l2.8,0.2c3.7,0.2,6.5,1.1,9.1,2.9c1.1,0.7,2.1,1.5,2.2,1.6
		c0.1,0.2-0.2,0.7-0.6,1.1c-0.9,0.9-1.9,2.9-1.9,3.9c0,0.3-0.1,0.6-0.2,0.6C190.4,291.8,189.7,291.2,188.9,290.5L188.9,290.5z"/>
	<g>
		<g>
			<path class="st3" d="M76.1,298.4h32.3c6.4,0,11.2,0.3,14.3,0.8c3.1,0.5,6,1.6,8.4,3.3c2.5,1.7,4.5,3.9,6.2,6.8
				c1.7,2.8,2.5,6,2.5,9.5c0,3.8-1,7.3-3.1,10.4c-2,3.2-4.8,5.5-8.3,7.1c4.9,1.4,8.7,3.9,11.4,7.3c2.6,3.5,4,7.5,4,12.2
				c0,3.7-0.9,7.3-2.6,10.7c-1.7,3.5-4,6.3-7,8.3c-3,2.1-6.6,3.4-10.9,3.8c-2.7,0.3-9.3,0.5-19.7,0.6H76.1V298.4z M92.4,311.9v18.7
				h10.7c6.4,0,10.3-0.1,11.9-0.3c2.8-0.3,5-1.3,6.6-2.9c1.6-1.6,2.4-3.7,2.4-6.3c0-2.5-0.7-4.5-2.1-6.1c-1.4-1.6-3.4-2.5-6.1-2.8
				c-1.6-0.2-6.3-0.3-14-0.3H92.4z M92.4,344v21.6h15.1c5.9,0,9.6-0.2,11.2-0.5c2.4-0.5,4.4-1.6,5.9-3.2c1.5-1.7,2.3-4,2.3-6.9
				c0-2.4-0.6-4.5-1.8-6.2c-1.2-1.7-2.9-2.9-5.1-3.7c-2.2-0.8-7-1.2-14.5-1.2H92.4z"/>
			<path class="st3" d="M191.4,360.6l15.4,2.6c-2,5.7-5.1,10-9.4,12.9c-4.3,3-9.6,4.5-16.1,4.5c-10.2,0-17.7-3.3-22.6-10
				c-3.9-5.3-5.8-12.1-5.8-20.2c0-9.7,2.5-17.3,7.6-22.8c5.1-5.5,11.5-8.3,19.3-8.3c8.7,0,15.6,2.9,20.6,8.6
				c5,5.7,7.5,14.6,7.2,26.4h-38.8c0.1,4.6,1.4,8.2,3.8,10.7c2.4,2.6,5.4,3.8,8.9,3.8c2.4,0,4.5-0.6,6.1-2
				C189.3,365.7,190.6,363.6,191.4,360.6z M192.3,345c-0.1-4.5-1.3-7.9-3.5-10.2c-2.2-2.3-4.9-3.5-8.1-3.5c-3.4,0-6.2,1.2-8.4,3.7
				c-2.2,2.4-3.3,5.8-3.2,10H192.3z"/>
		</g>
		<g>
			<path class="st4" d="M163.7,314.3v-13.7H198v13.7H163.7z"/>
		</g>
	</g>
</g>
<g class="st5">
	<g class="st6">
		<ellipse class="st7" cx="141.7" cy="142.8" rx="118.9" ry="118.9"/>
	</g>
	<g class="st6">
		<g>
			<path class="st3" d="M75.9,101.7h32.3c6.4,0,11.2,0.3,14.3,0.8c3.1,0.5,6,1.6,8.4,3.3c2.5,1.7,4.5,3.9,6.2,6.8
				c1.7,2.8,2.5,6,2.5,9.5c0,3.8-1,7.3-3.1,10.4c-2,3.2-4.8,5.5-8.3,7.1c4.9,1.4,8.7,3.9,11.4,7.3c2.6,3.5,4,7.5,4,12.2
				c0,3.7-0.9,7.3-2.6,10.7c-1.7,3.5-4,6.3-7,8.3c-3,2.1-6.6,3.4-10.9,3.8c-2.7,0.3-9.3,0.5-19.7,0.6H75.9V101.7z M92.2,115.2v18.7
				h10.7c6.4,0,10.3-0.1,11.9-0.3c2.8-0.3,5-1.3,6.6-2.9c1.6-1.6,2.4-3.7,2.4-6.3c0-2.5-0.7-4.5-2.1-6.1c-1.4-1.6-3.4-2.5-6.1-2.8
				c-1.6-0.2-6.3-0.3-14-0.3H92.2z M92.2,147.4V169h15.1c5.9,0,9.6-0.2,11.2-0.5c2.4-0.5,4.4-1.6,5.9-3.2c1.5-1.7,2.3-4,2.3-6.9
				c0-2.4-0.6-4.5-1.8-6.2c-1.2-1.7-2.9-2.9-5.1-3.7c-2.2-0.8-7-1.2-14.5-1.2H92.2z"/>
			<path class="st3" d="M191.3,163.9l15.4,2.6c-2,5.7-5.1,10-9.4,12.9c-4.3,3-9.6,4.5-16.1,4.5c-10.2,0-17.7-3.3-22.6-10
				c-3.9-5.3-5.8-12.1-5.8-20.2c0-9.7,2.5-17.3,7.6-22.8c5.1-5.5,11.5-8.3,19.3-8.3c8.7,0,15.6,2.9,20.6,8.6
				c5,5.7,7.5,14.6,7.2,26.4h-38.8c0.1,4.6,1.4,8.2,3.8,10.7c2.4,2.6,5.4,3.8,8.9,3.8c2.4,0,4.5-0.6,6.1-2
				C189.2,169,190.4,166.9,191.3,163.9z M192.1,148.3c-0.1-4.5-1.3-7.9-3.5-10.2c-2.2-2.3-4.9-3.5-8.1-3.5c-3.4,0-6.2,1.2-8.4,3.7
				c-2.2,2.4-3.3,5.8-3.2,10H192.1z"/>
		</g>
		<g>
			<path class="st4" d="M163.6,117.6v-13.7h34.3v13.7H163.6z"/>
		</g>
	</g>
</g>
</svg>
