<?xml version="1.0" encoding="utf-8"?>
<!-- Generator: Adobe Illustrator 24.0.2, SVG Export Plug-In . SVG Version: 6.00 Build 0)  -->
<svg version="1.1"
	 id="svg8" inkscape:version="0.92.4 (5da689c313, 2019-01-14)" sodipodi:docname="instaicon.svg" xmlns:cc="http://creativecommons.org/ns#" xmlns:dc="http://purl.org/dc/elements/1.1/" xmlns:inkscape="http://www.inkscape.org/namespaces/inkscape" xmlns:rdf="http://www.w3.org/1999/02/22-rdf-syntax-ns#" xmlns:sodipodi="http://sodipodi.sourceforge.net/DTD/sodipodi-0.dtd" xmlns:svg="http://www.w3.org/2000/svg"
	 xmlns="http://www.w3.org/2000/svg" xmlns:xlink="http://www.w3.org/1999/xlink" x="0px" y="0px" viewBox="0 0 283.5 283.5"
	 style="enable-background:new 0 0 283.5 283.5;" xml:space="preserve">
<style type="text/css">
	.st0{stroke:#FDFFFF;stroke-width:11.3386;stroke-miterlimit:11.3386;}
	.st1{fill:none;stroke:#FFFFFF;stroke-width:7.0866;stroke-miterlimit:11.3386;}
	.st2{fill:none;stroke:#000000;stroke-width:11.3386;stroke-miterlimit:11.3386;}
	.st3{fill:none;stroke:#FFFFFF;stroke-width:11.3386;stroke-miterlimit:11.3386;}
	.st4{fill:none;stroke:#F7FCFC;stroke-width:11.3386;stroke-miterlimit:11.3386;}
	.st5{fill:#FFFFFF;stroke:#FFFFFF;stroke-width:11.3386;stroke-miterlimit:11.3386;}
	.st6{stroke:#000000;stroke-width:4.0495;stroke-miterlimit:3;}
</style>
<sodipodi:namedview  bordercolor="#666666" borderopacity="1.0" id="base" inkscape:current-layer="layer1" inkscape:cx="492.46377" inkscape:cy="-9.5377153" inkscape:document-units="mm" inkscape:object-nodes="false" inkscape:pageopacity="0.0" inkscape:pageshadow="2" inkscape:window-height="1017" inkscape:window-maximized="1" inkscape:window-width="1920" inkscape:window-x="-8" inkscape:window-y="-8" inkscape:zoom="0.98994949" pagecolor="#ffffff" showgrid="false" showguides="false">
	</sodipodi:namedview>
<g id="layer1" transform="translate(0,-197)" inkscape:groupmode="layer" inkscape:label="Layer 1">
	<circle id="path815" class="st0" cx="141.7" cy="338.7" r="118.9"/>
	
		<circle id="path865" inkscape:transform-center-x="3.0238095" inkscape:transform-center-y="-16.252976" class="st1" cx="179.9" cy="300.8" r="10.2">
	</circle>
	<path id="path975" inkscape:connector-curvature="0" class="st2" d="M172.5,338.7h30"/>
	<path id="path977" inkscape:connector-curvature="0" class="st2" d="M81.4,338.7h30"/>
	<circle id="path863" class="st3" cx="141.7" cy="338.7" r="30.1"/>
	<path id="path896" inkscape:connector-curvature="0" class="st4" d="M101.8,276h79.9c12.6,0,22.8,10.2,22.8,22.8v79.9
		c0,12.6-10.2,22.8-22.8,22.8h-79.9c-12.6,0-22.8-10.2-22.8-22.8v-79.9C79,286.1,89.1,276,101.8,276L101.8,276z"/>
	<path id="path979" inkscape:connector-curvature="0" class="st5" d="M86.8,311.3c0-17.7,0.5-19.8,5.3-24.6
		c5.2-5.2,5.5-5.3,45.5-5.1c25.4,0.1,38.6,0.8,35.6,2c-6.5,2.6-9.9,10-8.6,18.4c1.1,6.9,1,7.1-3.5,4.1c-8.6-5.6-21.4-6.3-31.9-1.6
		c-9.9,4.4-20.9,16.3-20.9,22.6c0,2.8-2.2,3.5-10.7,3.5H86.8L86.8,311.3z"/>
	<path id="path981" inkscape:connector-curvature="0" class="st5" d="M176.3,324.4l-4.1-8.4l7,1.1c5.6,0.9,8.1,0,12.8-4.6
		c4.9-4.9,5.6-7.1,4.6-14.2c-0.6-4.8-0.3-7.9,0.8-7.2c1.1,0.7,1.9,10.3,1.9,21.4v20.2h-9.4C181,332.8,180.2,332.3,176.3,324.4
		L176.3,324.4z"/>
	<path id="path1003" inkscape:connector-curvature="0" class="st6" d="M188.9,290.5c-2.4-2.2-5.7-3.5-9.2-3.5c-0.9,0-1.6,0-1.6-0.1
		c0,0,0.2-0.6,0.5-1.1c0.4-0.7,0.5-1.6,0.5-2.6v-1.6l2.8,0.2c3.7,0.2,6.5,1.1,9.1,2.9c1.1,0.7,2.1,1.5,2.2,1.6
		c0.1,0.2-0.2,0.7-0.6,1.1c-0.9,0.9-1.9,2.9-1.9,3.9c0,0.3-0.1,0.6-0.2,0.6C190.4,291.8,189.7,291.2,188.9,290.5L188.9,290.5z"/>
</g>
</svg>
